<svg width="100%" height="100%" viewBox="0 0 38 42" fill="none" xmlns="http://www.w3.org/2000/svg">
<path d="M1.53394 12.7663V29.2312C1.53394 30.2812 2.10563 31.2543 3.02735 31.7793L17.5064 40.0141C17.962 40.2717 18.4765 40.4072 18.9999 40.4072C19.5232 40.4072 20.0377 40.2717 20.4933 40.0141L34.9677 31.777C35.8917 31.2543 36.4611 30.2836 36.4611 29.2335V12.764C36.4611 11.7139 35.8917 10.7409 34.9677 10.2182L20.4933 1.98341C20.0377 1.72575 19.5232 1.59033 18.9999 1.59033C18.4765 1.59033 17.962 1.72575 17.5064 1.98341L3.02735 10.2205C2.57494 10.474 2.19829 10.8435 1.9362 11.291C1.67411 11.7385 1.53373 12.2477 1.53394 12.7663Z" fill="#213147"/>
<path d="M22.1569 24.1933L20.0918 29.7702C20.0356 29.9247 20.0356 30.0941 20.0918 30.2486L23.6457 39.8438L27.7525 37.508L22.822 24.1933C22.7968 24.1254 22.7514 24.0669 22.692 24.0255C22.6325 23.9842 22.5618 23.962 22.4894 23.962C22.417 23.962 22.3464 23.9842 22.2869 24.0255C22.2275 24.0669 22.1821 24.1254 22.1569 24.1933ZM26.2965 14.8151C26.2713 14.7472 26.2259 14.6887 26.1665 14.6474C26.107 14.606 26.0364 14.5839 25.964 14.5839C25.8915 14.5839 25.8209 14.606 25.7614 14.6474C25.702 14.6887 25.6566 14.7472 25.6314 14.8151L23.5663 20.3921C23.5102 20.5466 23.5102 20.7159 23.5663 20.8704L29.386 36.5793L33.4952 34.2435L26.2965 14.8151Z" fill="#12AAFF"/>
<path d="M18.9952 2.6018C19.0977 2.60563 19.198 2.63192 19.2892 2.67881L34.9584 11.5879C35.0466 11.6384 35.1202 11.7109 35.1718 11.7985C35.2233 11.8861 35.2511 11.9857 35.2524 12.0873V29.9032C35.2524 30.1109 35.1404 30.2999 34.9584 30.4026L19.2892 39.3141C19.1995 39.3644 19.0981 39.3902 18.9952 39.3887C18.8937 39.3853 18.7942 39.3598 18.7035 39.3141L3.03436 30.4119C2.94576 30.3613 2.87198 30.2884 2.82039 30.2003C2.7688 30.1123 2.7412 30.0123 2.74035 29.9102V12.092C2.74035 11.8843 2.85235 11.6953 3.03436 11.5903L18.7035 2.68114C18.7925 2.63051 18.8928 2.60322 18.9952 2.6018ZM18.9952 7.77008e-07C18.4398 7.77008e-07 17.8798 0.140008 17.3805 0.427023L1.71596 9.33383C1.22644 9.60931 0.818805 10.0098 0.534701 10.4944C0.250597 10.979 0.100202 11.5303 0.098877 12.092V29.9079C0.098877 31.0443 0.714909 32.0967 1.71596 32.6637L17.3828 41.5752C17.8762 41.8537 18.4333 42 18.9999 42C19.5665 42 20.1235 41.8537 20.617 41.5752L36.2838 32.6661C36.7733 32.3906 37.1809 31.9901 37.465 31.5055C37.7491 31.0209 37.8995 30.4696 37.9009 29.9079V12.092C37.8995 11.5303 37.7491 10.979 37.465 10.4944C37.1809 10.0098 36.7733 9.60931 36.2838 9.33383L20.6123 0.427023C20.1194 0.146774 19.5622 -0.000390199 18.9952 7.77008e-07Z" fill="#9DCCED"/>
<path d="M8.63708 36.6002L10.0768 32.7126L12.9796 35.0881L10.2658 37.5289L8.63708 36.6002Z" fill="#213147"/>
<path d="M17.6766 10.8156H13.7051C13.5603 10.814 13.4186 10.8574 13.2995 10.9397C13.1804 11.0221 13.0898 11.1393 13.0401 11.2753L4.52527 34.2645L8.63448 36.6003L18.0103 11.2846C18.0291 11.2315 18.0348 11.1747 18.0269 11.1189C18.019 11.0632 17.9978 11.0102 17.965 10.9643C17.9323 10.9185 17.889 10.8813 17.8388 10.8558C17.7886 10.8303 17.7329 10.815 17.6766 10.8156ZM24.628 10.8156H20.6541C20.5097 10.8145 20.3686 10.8581 20.2499 10.9404C20.1313 11.0227 20.041 11.1397 19.9914 11.2753L10.2679 37.5267L14.3771 39.8601L24.9593 11.2846C24.978 11.2317 24.9838 11.1751 24.976 11.1195C24.9682 11.064 24.9472 11.0111 24.9147 10.9653C24.8823 10.9196 24.8393 10.8823 24.7893 10.8566C24.7394 10.831 24.6841 10.8154 24.628 10.8156Z" fill="white"/>
</svg>
