<svg width="100%" height="100%" viewBox="0 0 40 42" fill="none" xmlns="http://www.w3.org/2000/svg">
<path fill-rule="evenodd" clip-rule="evenodd" d="M39.9999 9.14081L32.9623 4.95655L27.0175 8.45468V4.1692L19.9908 -6.10352e-05L12.986 4.1692V8.49967L6.97192 4.95655L-0.00012207 9.14456V17.4793L5.91191 21.0111L-0.00012207 24.543V32.8103L6.97192 37.0658L12.9131 33.5489V37.8831L19.9544 41.9999L27.0248 37.8831L27.0102 33.5489L32.9659 37.0658L39.9999 32.8103V24.543L34.0624 21.0111L39.9999 17.4793V9.14081ZM32.9623 6.26507L38.3498 9.467L26.4747 16.5007L23.4149 14.6748L27.0175 12.5377V9.75945L32.9623 6.26507ZM14.086 5.47396L19.4444 8.66464V15.0722L18.7341 14.6485L17.634 13.9962L14.086 11.8853V5.47396ZM25.9174 11.8853L21.2184 14.671L20.5445 15.0722V8.66464L25.9174 5.47396V11.8853ZM19.9944 7.68232L14.6361 4.49539L19.9944 1.30471L25.3637 4.49539L19.9944 7.68232ZM6.97921 6.26507L12.986 9.80444V12.5377L16.5412 14.6523L13.4632 16.497L1.64636 9.467L6.97921 6.26507ZM1.09996 16.8269V10.4493L12.3667 17.1531L7.00835 20.355L1.09996 16.8269ZM6.42552 35.4161L1.09996 32.1654V25.8553L6.42552 29.0535V35.4161ZM1.64272 24.8692L13.4668 17.8055L18.8506 20.9512L6.97557 28.0711L1.64272 24.8692ZM19.4043 40.3764L14.0132 37.227V32.8965L19.4043 29.7058V40.3764ZM19.4043 28.4011L7.52561 35.4311V29.0535L19.4043 21.9297V28.4011ZM14.5669 17.1456L17.6376 15.3047L19.9908 16.7069L22.3185 15.3272L25.3674 17.1456L19.9544 20.295L14.5669 17.1456ZM20.5044 40.3802V29.7058L25.9101 32.8965L25.921 37.227L20.5044 40.3802ZM32.4122 35.4348L20.5044 28.3973V21.9297L32.4122 29.0535V35.4348ZM38.8998 32.1654L33.5123 35.4236V29.0535L38.8998 25.8478V32.1654ZM38.3534 24.8692L32.9623 28.0711L21.0581 20.9512L26.4711 17.8055L38.3534 24.8692ZM38.8998 16.8269L32.9623 20.3588L27.5748 17.1531L38.8998 10.4455V16.8269Z" fill="#0CC2FF"/>
</svg>
