<svg width="100%" height="100%" viewBox="0 0 42 42" fill="none" xmlns="http://www.w3.org/2000/svg">
<path opacity="0.2" d="M41.8861 21.0003C41.8861 32.5372 32.5338 41.8898 20.997 41.8898C9.46009 41.8898 0.107666 32.5372 0.107666 21.0003C0.107666 9.46351 9.46009 0.111084 20.997 0.111084C32.5337 0.111084 41.8861 9.46351 41.8861 21.0003Z" fill="#505050"/>
<g opacity="0.8">
<path d="M20.9303 11.3077L20.8013 11.7463V24.472L20.9303 24.6008L26.8374 21.1091L20.9303 11.3077Z" fill="white"/>
<path d="M20.9303 11.3077L15.0232 21.1091L20.9303 24.6008V18.4241V11.3077Z" fill="white"/>
<path d="M20.9301 26.5228L20.8574 26.6114V31.1446L20.9301 31.3569L26.8408 23.0328L20.9301 26.5228Z" fill="white"/>
<path d="M20.9303 31.357V26.5228L15.0232 23.0328L20.9303 31.357Z" fill="white"/>
<path d="M20.9302 24.6008L26.8372 21.1091L20.9302 18.4242V24.6008Z" fill="white"/>
<path d="M15.0232 21.1091L20.9302 24.6008V18.4242L15.0232 21.1091Z" fill="white"/>
</g>
</svg>
