<svg width="100%" height="100%" viewBox="0 0 64 64" fill="none" xmlns="http://www.w3.org/2000/svg">
<path fill-rule="evenodd" clip-rule="evenodd" d="M7.63027 40.8267C9.61003 42.2422 12.1499 42.95 15.25 42.95C18.9992 42.95 21.9941 42.1027 24.2347 40.4081C26.4754 38.6892 28.0517 36.0987 28.9637 32.6367C29.5097 30.5133 29.9789 28.3263 30.3712 26.0756C30.4986 25.2707 30.5633 24.6004 30.5653 24.0645C30.5653 22.2971 30.1093 20.7814 29.1973 19.5175C28.2572 18.2087 26.952 17.2064 25.445 16.6358C23.8556 15.9786 22.0588 15.65 20.0548 15.65C12.6858 15.65 8.11561 19.1252 6.34414 26.0756C5.80137 28.2488 5.31888 30.4367 4.89724 32.6367C4.77995 33.3141 4.71423 33.9956 4.70007 34.6811C4.70007 37.3383 5.67681 39.3869 7.63027 40.8267ZM21.7353 32.4092C20.986 35.3121 18.9264 37.2018 15.796 37.2018C12.702 37.2018 11.6464 35.1088 12.2045 32.4092C12.5928 30.3189 13.0623 28.2446 13.612 26.1908C14.4158 23.0544 16.3117 21.3982 19.5452 21.3982C22.6301 21.3982 23.6341 23.4608 23.1033 26.1908C22.72 28.2789 22.2637 30.353 21.7353 32.4092ZM33.5713 42.677C33.725 42.859 33.9414 42.949 34.2205 42.947H39.3893C39.6538 42.9425 39.9087 42.8472 40.1112 42.677C40.3367 42.5056 40.4868 42.2533 40.5298 41.9733L42.1617 34.3293H47.4185C50.737 34.3293 53.3335 32.7216 55.2324 31.2899C57.1596 29.8602 58.4396 27.6499 59.0726 24.659C59.2242 23.9553 59.3001 23.2778 59.3001 22.6267C59.3001 20.3679 58.4396 18.6389 56.7187 17.4397C55.02 16.2445 52.7653 15.647 49.9544 15.647H39.8443C39.5794 15.6523 39.3245 15.7487 39.1223 15.92C38.9014 16.0954 38.7524 16.3458 38.7037 16.6237L33.4561 41.9702C33.4269 42.0893 33.4221 42.2129 33.4419 42.3339C33.4617 42.4548 33.5057 42.5735 33.5713 42.677ZM52.0443 24.5771C51.5681 26.6671 49.7481 28.5781 47.6096 28.5781H43.2416L44.7461 21.3921H49.3052C50.8583 21.3921 52.1566 21.7015 52.1566 23.4093C52.1566 23.7429 52.1192 24.1322 52.0443 24.5771Z" fill="#FE0420"/>
</svg>
