<svg width="100%" height="100%" viewBox="0 0 28 28" fill="none" xmlns="http://www.w3.org/2000/svg">
<path d="M0 4.86957C0 2.18018 2.18018 0 4.86957 0H14C21.732 0 28 6.26801 28 14C28 21.732 21.732 28 14 28H4.86957C2.18018 28 0 25.8198 0 23.1304V4.86957Z" fill="#555DFF"/>
<path d="M12.7825 22.2174C12.5238 22.2174 12.3071 22.1298 12.1324 21.9545C11.9577 21.7791 11.8701 21.5625 11.8695 21.3044V16.1913L8.26295 19.8207C8.08035 20.0033 7.86365 20.0946 7.61287 20.0946C7.36208 20.0946 7.14508 20.0033 6.96187 19.8207C6.77865 19.6381 6.68734 19.4214 6.68795 19.1706C6.68856 18.9198 6.77987 18.7028 6.96187 18.5196L10.5912 14.9131H5.47817C5.21948 14.9131 5.00278 14.8254 4.82808 14.6501C4.65339 14.4748 4.56574 14.2581 4.56513 14C4.56452 13.7419 4.65217 13.5252 4.82808 13.3499C5.004 13.1746 5.22069 13.087 5.47817 13.087H10.5912L6.96187 9.48045C6.77926 9.29784 6.68795 9.08115 6.68795 8.83037C6.68795 8.57958 6.77926 8.36258 6.96187 8.17937C7.14448 7.99615 7.36148 7.90484 7.61287 7.90545C7.86426 7.90606 8.08095 7.99737 8.26295 8.17937L11.8695 11.8087V6.69567C11.8695 6.43697 11.9571 6.22028 12.1324 6.04558C12.3077 5.87089 12.5244 5.78324 12.7825 5.78263C13.0406 5.78202 13.2576 5.86967 13.4335 6.04558C13.6094 6.2215 13.6968 6.43819 13.6956 6.69567V11.8087L17.3021 8.17937C17.4847 7.99676 17.7017 7.90545 17.9531 7.90545C18.2045 7.90545 18.4212 7.99676 18.6032 8.17937C18.7852 8.36197 18.8765 8.57897 18.8771 8.83037C18.8777 9.08176 18.7864 9.29845 18.6032 9.48045L14.9738 13.087H20.0869C20.3456 13.087 20.5626 13.1746 20.7379 13.3499C20.9132 13.5252 21.0005 13.7419 20.9999 14C20.9993 14.2581 20.9116 14.4751 20.737 14.651C20.5623 14.8269 20.3456 14.9143 20.0869 14.9131H14.9738L18.6032 18.5196C18.7858 18.7022 18.8771 18.9192 18.8771 19.1706C18.8771 19.422 18.7858 19.6387 18.6032 19.8207C18.4206 20.0027 18.2039 20.094 17.9531 20.0946C17.7023 20.0952 17.4853 20.0039 17.3021 19.8207L13.6956 16.1913V21.3044C13.6956 21.5631 13.6079 21.7801 13.4326 21.9554C13.2573 22.1307 13.0406 22.218 12.7825 22.2174Z" fill="white"/>
</svg>
