<svg width="100%" height="100%" viewBox="0 0 20 20" fill="none" xmlns="http://www.w3.org/2000/svg">
<g clip-path="url(#clip0_273_518)">
<path d="M9.99536 0.0196838H9.99534C4.47803 0.0196838 0.00537109 4.49235 0.00537109 10.0097V10.0097C0.00537109 15.527 4.47803 19.9996 9.99534 19.9996H9.99536C15.5127 19.9996 19.9853 15.527 19.9853 10.0097V10.0097C19.9853 4.49235 15.5127 0.0196838 9.99536 0.0196838Z" fill="black"/>
<path fill-rule="evenodd" clip-rule="evenodd" d="M4.10449 4.1222V15.8971H7.29948L9.9987 13.2337L12.6993 15.8971H15.8927V4.1222H12.6998L9.9987 6.77701L7.29902 4.1222H4.10449ZM5.01027 5.02799H6.92827L9.36733 7.4265L6.78407 10.0098L9.36289 12.5886L6.92783 14.9914H5.01027V5.02799ZM10.6346 12.5886L13.0708 14.9914H14.9869V5.02799H13.0704L10.6301 7.42644L13.2134 10.0098L10.6346 12.5886ZM9.99876 11.9435L8.06503 10.0098L9.99876 8.07605L11.9325 10.0098L9.99876 11.9435Z" fill="#0CC2FF"/>
</g>
<rect x="0.25" y="0.25" width="19.5" height="19.5" rx="9.75" stroke="#0CC2FF" stroke-width="0.5"/>
<defs>
<clipPath id="clip0_273_518">
<rect width="20" height="20" rx="10" fill="white"/>
</clipPath>
</defs>
</svg>
