<svg width="70" height="70" viewBox="0 0 70 70" fill="none" xmlns="http://www.w3.org/2000/svg">
<path d="M34.9999 64.1667C51.1082 64.1667 64.1666 51.1083 64.1666 35C64.1666 18.8917 51.1082 5.83333 34.9999 5.83333C18.8916 5.83333 5.83325 18.8917 5.83325 35C5.83325 51.1083 18.8916 64.1667 34.9999 64.1667Z" stroke="#B2B2B2" stroke-width="5.83333" stroke-linecap="round" stroke-linejoin="round"/>
<path d="M27.7083 26.1489C27.7083 24.7568 27.7083 24.0608 27.9992 23.6722C28.2527 23.3336 28.6407 23.1217 29.0627 23.0916C29.5469 23.057 30.1324 23.4334 31.3034 24.1861L45.0718 33.0372C46.0879 33.6905 46.5959 34.0171 46.7714 34.4324C46.9247 34.7953 46.9247 35.2047 46.7714 35.5676C46.5959 35.9829 46.0879 36.3095 45.0718 36.9627L31.3034 45.8139C30.1324 46.5666 29.5469 46.943 29.0627 46.9084C28.6407 46.8783 28.2527 46.6664 27.9992 46.3278C27.7083 45.9392 27.7083 45.2432 27.7083 43.8511V26.1489Z" stroke="#B2B2B2" stroke-width="5.83333" stroke-linecap="round" stroke-linejoin="round"/>
</svg>
