<svg width="100%" height="100%" viewBox="0 0 32 32" fill="none" xmlns="http://www.w3.org/2000/svg">
<path d="M16 0.400391C24.6156 0.400391 31.5996 7.38436 31.5996 16C31.5996 24.6156 24.6156 31.5996 16 31.5996C7.38436 31.5996 0.400391 24.6156 0.400391 16C0.400391 7.38436 7.38436 0.400391 16 0.400391Z" fill="#01040E"/>
<path d="M16 0.400391C24.6156 0.400391 31.5996 7.38436 31.5996 16C31.5996 24.6156 24.6156 31.5996 16 31.5996C7.38436 31.5996 0.400391 24.6156 0.400391 16C0.400391 7.38436 7.38436 0.400391 16 0.400391Z" stroke="#00BFFF" stroke-width="0.8"/>
<path fill-rule="evenodd" clip-rule="evenodd" d="M19.319 8.72745L8.72729 19.3188V23.2726H12.6807L23.2727 12.6805V8.72779L19.319 8.72745ZM9.83698 19.7786V22.1625H12.2209L22.1624 12.221V9.83713H19.7785L9.83698 19.7786Z" fill="#00BFFF"/>
<path d="M10.2573 14.2111L11.0421 13.4263L9.83732 12.2212V9.83732H12.2212L13.426 11.0424L14.2107 10.2577L12.6807 8.72729H8.72729V12.6807L10.2573 14.2111ZM19.319 23.2727L17.7931 21.7469L18.5779 20.9621L19.7788 22.1627H22.1624V19.7788L20.9618 18.5782L21.7465 17.7935L23.2724 19.319V23.2727H19.319Z" fill="#00BFFF"/>
</svg>
