<svg width="100%" height="100%" viewBox="0 0 20 20" fill="none" xmlns="http://www.w3.org/2000/svg">
<g clip-path="url(#clip0_109_21)">
<path d="M10 18.3333C14.6024 18.3333 18.3334 14.6024 18.3334 9.99999C18.3334 5.39762 14.6024 1.66666 10 1.66666C5.39765 1.66666 1.66669 5.39762 1.66669 9.99999C1.66669 14.6024 5.39765 18.3333 10 18.3333Z" stroke="currentColor" stroke-width="1.5" stroke-linecap="round" stroke-linejoin="round"/>
<path d="M12.2684 6.88829C12.6756 6.75259 12.8791 6.68473 13.0145 6.733C13.1323 6.77501 13.225 6.86771 13.267 6.98551C13.3153 7.12088 13.2474 7.32445 13.1117 7.73157L11.8721 11.4504C11.8334 11.5664 11.8141 11.6244 11.7812 11.6725C11.752 11.7151 11.7152 11.752 11.6725 11.7812C11.6244 11.8141 11.5664 11.8334 11.4505 11.8721L7.7316 13.1117C7.32448 13.2474 7.12091 13.3152 6.98555 13.267C6.86774 13.225 6.77504 13.1323 6.73303 13.0145C6.68476 12.8791 6.75262 12.6755 6.88832 12.2684L8.12794 8.54955C8.16659 8.4336 8.18592 8.37563 8.21885 8.32748C8.24802 8.28484 8.28487 8.24799 8.32751 8.21882C8.37566 8.18589 8.43363 8.16656 8.54958 8.12791L12.2684 6.88829Z" stroke="currentColor" stroke-width="1.5" stroke-linecap="round" stroke-linejoin="round"/>
</g>
<defs>
<clipPath id="clip0_109_21">
<rect width="20" height="20" fill="white"/>
</clipPath>
</defs>
</svg>
